<svg xmlns="http://www.w3.org/2000/svg" xmlns:xlink="http://www.w3.org/1999/xlink" viewBox="0,0,256,256" width="32px" height="32px" fill-rule="nonzero"><g fill-opacity="0.21176" fill="#000000" fill-rule="nonzero" stroke="none" stroke-width="1" stroke-linecap="butt" stroke-linejoin="miter" stroke-miterlimit="10" stroke-dasharray="" stroke-dashoffset="0" font-family="none" font-weight="none" font-size="none" text-anchor="none" style="mix-blend-mode: normal"><g transform="scale(8,8)"><path d="M12.5,3c-5.238,0 -9.5,4.262 -9.5,9.5c0,5.238 4.262,9.5 9.5,9.5c2.25953,0 4.33427,-0.79674 5.9668,-2.11914l9.16016,9.16016l1.41406,-1.41406l-9.16016,-9.16016c1.3224,-1.63253 2.11914,-3.70726 2.11914,-5.9668c0,-5.238 -4.262,-9.5 -9.5,-9.5zM12.5,5c4.136,0 7.5,3.364 7.5,7.5c0,4.136 -3.364,7.5 -7.5,7.5c-4.136,0 -7.5,-3.364 -7.5,-7.5c0,-4.136 3.364,-7.5 7.5,-7.5z"></path></g></g></svg>